<svg xmlns="http://www.w3.org/2000/svg" width="165.962" height="32.826" viewBox="0 0 165.962 32.826">
  <g id="Group_7" data-name="Group 7" transform="translate(-1.75 -2.125)">
    <g id="Group_5" data-name="Group 5" transform="translate(62.474 2.371)">
      <path id="Path_12" data-name="Path 12" d="M67.633,2.366h-.107A4.44,4.44,0,0,0,64.216,3.7V2.652H60.928V18.487h3.288V13.082a4.352,4.352,0,0,0,3.31,1.346,5.45,5.45,0,0,0,3.88-1.59A6.141,6.141,0,0,0,73.131,8.4a6.162,6.162,0,0,0-1.743-4.472A5.272,5.272,0,0,0,67.633,2.366ZM69.966,8.4a2.894,2.894,0,0,1-2.885,3.09A2.816,2.816,0,0,1,64.236,8.4a2.816,2.816,0,0,1,2.844-3.09,2.731,2.731,0,0,1,2.077.878A3.075,3.075,0,0,1,69.966,8.4Z" transform="translate(-60.928 -2.365)"/>
      <path id="Path_13" data-name="Path 13" d="M80.624,2.447a3.6,3.6,0,0,0-2.845,1.381V2.65H74.491V14.14h3.288V8.354A2.683,2.683,0,0,1,80.563,5.53a4.933,4.933,0,0,1,1.241.155l.322.084V2.709l-.166-.063A3.814,3.814,0,0,0,80.624,2.447Z" transform="translate(-60.574 -2.363)"/>
      <path id="Path_14" data-name="Path 14" d="M88.839,2.367h-.081a6.018,6.018,0,0,0-4.313,1.768,5.84,5.84,0,0,0-1.7,4.257,5.849,5.849,0,0,0,1.7,4.267,6.026,6.026,0,0,0,4.313,1.769h.08A5.928,5.928,0,0,0,94.927,8.4,5.928,5.928,0,0,0,88.839,2.367Zm0,2.961A2.9,2.9,0,0,1,91.763,8.4a3.061,3.061,0,0,1-.828,2.192,3,3,0,0,1-4.2,0A3.058,3.058,0,0,1,85.931,8.4,2.892,2.892,0,0,1,88.837,5.328Z" transform="translate(-60.358 -2.365)"/>
      <path id="Path_15" data-name="Path 15" d="M104.666,3.588a4.6,4.6,0,0,0-3.313-1.221,5.539,5.539,0,0,0-5.6,5.721,5.7,5.7,0,0,0,1.667,4.159,5.381,5.381,0,0,0,3.821,1.57h.113a4.663,4.663,0,0,0,3.313-1.225v.254a2.707,2.707,0,0,1-3.028,3.028,3.229,3.229,0,0,1-2.785-1.353l-.138-.208-2.6,1.62.151.221a6.406,6.406,0,0,0,5.374,2.6c3.791,0,6.336-2.374,6.336-5.908V2.652h-3.308Zm0,4.5a2.647,2.647,0,0,1-2.865,2.784,2.7,2.7,0,0,1-2.865-2.784,2.712,2.712,0,0,1,2.865-2.8A2.655,2.655,0,0,1,104.666,8.091Z" transform="translate(-60.018 -2.365)"/>
      <path id="Path_16" data-name="Path 16" d="M115.983,2.447a3.6,3.6,0,0,0-2.844,1.381V2.65h-3.288V14.14h3.288V8.354a2.683,2.683,0,0,1,2.784-2.824,4.933,4.933,0,0,1,1.241.155l.321.084V2.709l-.166-.063A3.81,3.81,0,0,0,115.983,2.447Z" transform="translate(-59.65 -2.363)"/>
      <path id="Path_17" data-name="Path 17" d="M127.02,3.676a4.39,4.39,0,0,0-3.309-1.309,5.174,5.174,0,0,0-3.834,1.55A6.212,6.212,0,0,0,118.1,8.4a5.7,5.7,0,0,0,5.6,6.031A4.439,4.439,0,0,0,127.02,13.1v1.047h3.308V2.652H127.02Zm0,4.721a2.824,2.824,0,0,1-2.865,3.09A2.886,2.886,0,0,1,121.29,8.4a3.145,3.145,0,0,1,.788-2.211,2.729,2.729,0,0,1,2.077-.878A2.824,2.824,0,0,1,127.02,8.4Z" transform="translate(-59.434 -2.365)"/>
      <path id="Path_18" data-name="Path 18" d="M145.825,2.367a4.315,4.315,0,0,0-3.728,1.9,4.144,4.144,0,0,0-3.7-1.9,3.794,3.794,0,0,0-2.906,1.286v-1H132.2V14.142h3.288V8.153a3.191,3.191,0,0,1,.66-2.066,1.951,1.951,0,0,1,1.594-.78c1.279,0,1.926.868,1.926,2.58v6.254h3.308V8.153c0-1.649.947-2.845,2.252-2.845,1.279,0,1.927.868,1.927,2.58v6.254h3.288V7.683C150.446,4.4,148.675,2.367,145.825,2.367Z" transform="translate(-59.066 -2.365)"/>
      <path id="Path_19" data-name="Path 19" d="M160.491,2.652V3.676a4.39,4.39,0,0,0-3.309-1.309,5.185,5.185,0,0,0-3.834,1.55,6.212,6.212,0,0,0-1.773,4.48,5.7,5.7,0,0,0,5.6,6.031,4.441,4.441,0,0,0,3.314-1.333v1.047H163.8V2.652Zm0,5.745a2.824,2.824,0,0,1-2.865,3.09,2.886,2.886,0,0,1-2.865-3.09,3.149,3.149,0,0,1,.787-2.211,2.733,2.733,0,0,1,2.078-.878A2.824,2.824,0,0,1,160.491,8.4Z" transform="translate(-58.56 -2.365)"/>
    </g>
    <g id="Group_6" data-name="Group 6" transform="translate(61.474 18.165)">
      <path id="Path_20" data-name="Path 20" d="M68.658,30.461a3.33,3.33,0,0,1-1.592.4c-1,0-1.479-.61-1.479-1.864V25.006h3.652V22.065H65.587V19.148H62.3v2.917H59.954v2.941H62.3v4.007c0,3.158,1.522,4.828,4.4,4.828a5.629,5.629,0,0,0,2.833-.715l.158-.1-.748-2.717Z" transform="translate(-59.954 -17.721)"/>
      <path id="Path_21" data-name="Path 21" d="M77.212,21.816a4.248,4.248,0,0,0-3.191,1.322V17.757H70.732V33.59h3.289V27.6a2.586,2.586,0,0,1,2.539-2.844c1.467,0,2.211.868,2.211,2.58V33.59h3.308V27.132C82.079,23.8,80.26,21.816,77.212,21.816Z" transform="translate(-59.672 -17.757)"/>
      <path id="Path_22" data-name="Path 22" d="M89.455,21.713h-.08a6.017,6.017,0,0,0-4.313,1.767,5.839,5.839,0,0,0-1.7,4.258,5.848,5.848,0,0,0,1.7,4.267,6.023,6.023,0,0,0,4.313,1.769h.079a6.031,6.031,0,1,0,0-12.061Zm0,2.96a2.9,2.9,0,0,1,2.925,3.07,3.059,3.059,0,0,1-.828,2.191,3,3,0,0,1-4.2,0,3.059,3.059,0,0,1-.808-2.191A2.893,2.893,0,0,1,89.453,24.673Z" transform="translate(-59.343 -17.654)"/>
      <path id="Path_23" data-name="Path 23" d="M104.372,21.992a3.814,3.814,0,0,0-1.335-.2,3.6,3.6,0,0,0-2.845,1.38V22H96.9V33.485h3.288V27.7a2.683,2.683,0,0,1,2.784-2.824,4.886,4.886,0,0,1,1.241.155l.322.084V22.055Z" transform="translate(-58.989 -17.652)"/>
    </g>
    <path id="Path_24" data-name="Path 24" d="M49.4,7.789c0-.027-.013-.049-.015-.076a.974.974,0,0,0-.049-.244,1.021,1.021,0,0,0-.049-.129.962.962,0,0,0-.1-.154,1.016,1.016,0,0,0-.51-.368c-.161-.081-.176-.178-.149-.367.151-1.044.3-2.086.409-3.134a1,1,0,0,0-1.093-1.188,14.822,14.822,0,0,0-6.948,1.593A8.236,8.236,0,0,0,36.243,10.4c-.045.414-.064.831-.1,1.293-.078-.086-.113-.118-.14-.156a12.464,12.464,0,0,0-7.973-5.257.522.522,0,0,1-.4-.384c-.344-.812-.694-1.619-1.034-2.432a1.063,1.063,0,0,0-2.043.016c-.338.814-.695,1.619-1.032,2.433a.562.562,0,0,1-.464.376,12.541,12.541,0,0,0-7.792,5.068c-.074.1-.117.239-.294.3,0-.124,0-.213,0-.3a8.338,8.338,0,0,0-4.808-7.687A14.922,14.922,0,0,0,3.617,2.127c-1.139-.035-1.541.439-1.368,1.579.142.934.256,1.872.386,2.807.015.109.041.221-.062.272a1.022,1.022,0,0,0-.823.991A1.037,1.037,0,0,0,2.784,8.811h.134a.7.7,0,0,1,.055.291c.088.614.173,1.227.262,1.841.026.181.008.3-.184.388a1.025,1.025,0,0,0-.753.977,1.037,1.037,0,0,0,1.034,1.034h.033c.18.057.225.176.246.377.063.585.133,1.17.234,1.75a.262.262,0,0,1-.121.31,1.009,1.009,0,0,0,.039,1.99,1.3,1.3,0,0,0,.148.041c.194.027.256.085.278.273.07.585.155,1.168.248,1.749.037.228.012.376-.172.487a1.011,1.011,0,0,0-.246.142.887.887,0,0,0-.429.769c0,.019-.011.035-.011.053s.012.044.013.067,0,.072,0,.109a1.308,1.308,0,0,0,.063.209l.006.022a.85.85,0,0,0,.537.539c.026.011.055.013.083.023a.826.826,0,0,0,.127.034c.335.036.385.191.418.474.115,1,.25,2,.394,2.994a1.09,1.09,0,0,0,1.254,1.076c.605,0,1.21.008,1.815,0,.221,0,.314.043.351.294a9.7,9.7,0,0,0,6.332,7.829V33.394h.019V23.545h-.027c0-1.172.005-2.345,0-3.517,0-.228.043-.33.3-.328q3.257.014,6.514,0c.225,0,.321.055.36.3.128.81.282,1.616.441,2.422a1,1,0,0,0,1.095.916q1.907.018,3.815,0a.988.988,0,0,0,1.064-.9c.158-.789.32-1.579.433-2.375.044-.315.169-.366.445-.365,2.11.009,4.219.015,6.328-.005.378,0,.421.131.418.454-.012,1.556-.007,3.111-.007,4.668h0v5.2L36.2,30V32.7l-.022.011v2.245A9.726,9.726,0,0,0,42.5,27.138c.039-.279.146-.318.381-.313.574.012,1.148.005,1.722,0,.862,0,1.221-.31,1.333-1.148.133-1,.269-2,.389-3,.025-.2.077-.315.266-.366a1.008,1.008,0,0,0,.413-.116.877.877,0,0,0,.478-.5c.005-.013.006-.027.01-.039a1.06,1.06,0,0,0,.064-.234c0-.025,0-.047,0-.073s.012-.04.012-.062-.012-.046-.014-.071a.921.921,0,0,0-.565-.847c-.024-.011-.043-.029-.068-.039a.309.309,0,0,1-.221-.4c.092-.613.185-1.226.253-1.842.024-.213.1-.267.31-.293l.018-.005a1.015,1.015,0,0,0,.133-2.012c-.119-.078-.136-.174-.107-.35.1-.564.168-1.134.225-1.7.018-.194.057-.316.2-.38h.084a1.038,1.038,0,0,0,1.034-1.034,1,1,0,0,0-.158-.515.529.529,0,0,0-.085-.125,1.012,1.012,0,0,0-.516-.339c-.268-.263-.148-.616-.092-.98.061-.4.131-.8.16-1.2.017-.252.119-.321.356-.357a1.368,1.368,0,0,0,.134-.042,1.061,1.061,0,0,0,.153-.048.969.969,0,0,0,.511-.519c.006-.014.007-.031.012-.046a.98.98,0,0,0,.066-.233c0-.026,0-.051,0-.077S49.4,7.809,49.4,7.789ZM12.99,31.338a8.2,8.2,0,0,1-1-1.167A7.624,7.624,0,0,1,10.611,26c-.037-.913-.37-1.243-1.291-1.248-.605,0-1.21-.01-1.814,0-.25.006-.346-.064-.371-.33-.054-.585-.142-1.169-.245-1.747-.05-.283.031-.368.286-.363H8.269c.052,0,.1,0,.156,0H8.46a1.006,1.006,0,0,0,.579-.2A.931.931,0,0,0,9.4,21.7a1.028,1.028,0,0,0-.945-1.447H6.78c-.148-.017-.23-.089-.251-.282-.069-.616-.141-1.231-.24-1.843-.044-.276.064-.308.291-.3.558.012,1.116.006,1.675,0,.055,0,.1-.016.148-.021H8.46a.989.989,0,0,0,.122-.025,1.609,1.609,0,0,0,.227-.046,1.055,1.055,0,0,0,.162-.084.883.883,0,0,0,.436-.469,1.029,1.029,0,0,0-.947-1.444H6.042c-.06-.031-.1-.092-.113-.219-.064-.632-.155-1.261-.26-1.887-.034-.206.027-.269.148-.287H8.46a1.022,1.022,0,0,0,.883-.531c.015-.027.038-.046.051-.075a1.02,1.02,0,0,0,.1-.429,1.01,1.01,0,0,0-.085-.405.818.818,0,0,0-.171-.254.891.891,0,0,0-.058-.077.868.868,0,0,0-.106-.072,1.009,1.009,0,0,0-.614-.226H8.239c-.018,0-.032-.006-.05-.006-.777,0-1.554-.009-2.329.006H5.718c-.274.006-.383-.08-.41-.349-.062-.585-.13-1.17-.226-1.751-.044-.274.028-.346.3-.342q1.488.02,2.977,0a1,1,0,0,0,1.1-.9c0-.032.018-.057.021-.091V7.843c0-.023.013-.042.013-.066A1.038,1.038,0,0,0,8.46,6.743H4.925c-.143-.043-.2-.15-.223-.375-.049-.585-.154-1.166-.241-1.749-.038-.248-.048-.385.31-.343A12.894,12.894,0,0,1,9.216,5.512,6.315,6.315,0,0,1,12.9,11.4c.035,2.419.008,4.837.008,7.257h0c0,2.326,0,4.651,0,6.979a6.54,6.54,0,0,0,.078,1Zm22.68-13.694c-2.388-.021-4.776-.01-7.163-.01-.916,0-1.2.238-1.377,1.149-.141.73-.282,1.459-.4,2.193-.037.229-.116.307-.349.3a11.091,11.091,0,0,0-1.395,0c-.4.035-.56-.1-.615-.5-.1-.7-.243-1.4-.37-2.1a1.081,1.081,0,0,0-1.236-1.04c-2.434,0-4.868-.01-7.3.009-.378,0-.428-.1-.372-.441A10.473,10.473,0,0,1,23.632,8.31a1.937,1.937,0,0,0,1.735-1.452c.04-.131.106-.256.2-.487.176.4.331.7.442,1.012a1.212,1.212,0,0,0,1.067.833,10.522,10.522,0,0,1,8.766,7.96c.083.329.12.671.205,1C36.142,17.525,36.072,17.647,35.671,17.644ZM46.7,4.533c-.1.675-.194,1.349-.273,2.027-.015.141-.078.183-.153.195H42.689a1.038,1.038,0,0,0-1.034,1.034,1.02,1.02,0,0,0,.086.407.9.9,0,0,0,.406.45,1.011,1.011,0,0,0,.187.1c.041.013.09.016.133.027a1.012,1.012,0,0,0,.222.045h.073c.03,0,.051.012.081.012.931.008,1.862.027,2.791-.009.423-.016.484.126.42.494-.092.517-.158,1.042-.205,1.566-.029.32-.17.4-.476.389-.836-.022-1.675-.013-2.512-.006-.044,0-.077.015-.119.018h-.052a1.032,1.032,0,0,0-.149.03,1.647,1.647,0,0,0-.217.044,1.018,1.018,0,0,0-.143.08.887.887,0,0,0-.453.519,1.013,1.013,0,0,0-.074.361,1.038,1.038,0,0,0,1.034,1.034h2.666c.134.047.145.165.109.372a15.577,15.577,0,0,0-.23,1.655c-.015.236-.09.329-.23.364H42.689a1.028,1.028,0,0,0-.945,1.447.931.931,0,0,0,.423.459,1,1,0,0,0,.142.085c.031.012.071.012.1.022a1,1,0,0,0,.277.056h.039c.011,0,.019.005.032.005.6.01,1.21.011,1.814,0,.238-.005.329.04.285.309-.1.6-.166,1.2-.233,1.8-.027.241-.116.344-.379.329-.448-.024-.9-.008-1.348-.005-.029,0-.048.009-.076.01h-.134a.991.991,0,0,0-.3.061l-.009,0a1.009,1.009,0,0,0-.3.155.919.919,0,0,0-.109.074.941.941,0,0,0-.094.124.87.87,0,0,0-.134.2.989.989,0,0,0-.006.83.81.81,0,0,0,.066.1,1.051,1.051,0,0,0,.176.24h0a1.026,1.026,0,0,0,.7.286h1.476c.1.03.125.114.1.262-.1.643-.193,1.288-.264,1.934-.03.269-.2.226-.366.226-.62,0-1.241,0-1.861,0-.859.009-1.207.352-1.238,1.207A7.756,7.756,0,0,1,38.2,31.292V26.314c.011-.148.021-.3.022-.451.039-4.7.017-9.4.012-14.1A6.623,6.623,0,0,1,39.9,7.022a8.806,8.806,0,0,1,4.52-2.409,16.057,16.057,0,0,1,2.014-.34C46.682,4.242,46.728,4.313,46.7,4.533Z" fill="#2438ed"/>
  </g>
</svg>
